{"title":"The Bill Collector 2011 DVDRiP XViD TASTE","uid":6379581,"size":739119112,"categoryP":"video","categoryS":"movies","magnet":"?xt=urn:btih:8d535215f2a44284fef4c422226e32f41379c80f&amp;dn=The+Bill+Collector+2011+DVDRiP+XViD+TASTE&amp;tr=udp%3A%2F%2Ftracker.openbittorrent.com%3A80&amp;tr=udp%3A%2F%2Fopen.demonii.com%3A1337&amp;tr=udp%3A%2F%2Ftracker.coppersurfer.tk%3A6969&amp;tr=udp%3A%2F%2Fexodus.desync.com%3A6969","seeders":0,"leechers":1,"uploader":"qwersd","files":-1,"time":1304982796,"description":"Type:\nMOVIES\nStandard:\nSCENE\nFormat:\nXVID\nSource:\nDVDRIP\nGroup:\nTASTE \n\nTitle:\nThe Bill Collector\nYear:\n2011\nGenre:\nComedy\n &lt;a href=&quot;\nhttp://www.imdb.com/title/tt1305008&quot; rel=&quot;nofollow&quot; target=&quot;_NEW&quot;&gt;\nhttp://www.imdb.com/title/tt1305008&lt;/a&gt;\nIMDB:\n3.3\nStoryline:\nLorenzo Adams is in trouble. While working at a bill collection agency in Norfolk, \nVA an old debt of his own suddenly comes due when Frankie Gutierrez, an L.A. loan shark, \nshows up at his door. With less than three weeks to payback $100,000 and Frankie's \nenforcer, Omar, shadowing his every move, Lorenzo cooks up a plan to pay his debt by \nscamming the collection agency and an inner-city mission. Neither Omar or the people \nfrom the mission are what he expects and Lorenzo's scheme doesn't work quite as he plans.\n\nFormat : AVI\nFormat/Info : Audio Video Interleave\nFile size : 696 MiB\nDuration : 1h 36mn\nOverall bit rate : 1 007 Kbps\nWriting application : VirtualDubMod 1.5.10.2 (build 2540/release)\nWriting library : VirtualDubMod build 2540/release\n\nVideo\nID : 0\nFormat : MPEG-4 Visual\nFormat profile : Advanced Simple@L5\nFormat settings, BVOP : Yes\nFormat settings, QPel : No\nFormat settings, GMC : No warppoints\nFormat settings, Matrix : Default (H.263)\nMuxing mode : Packed bitstream\nCodec ID : XVID\nCodec ID/Hint : XviD\nDuration : 1h 36mn\nBit rate : 806 Kbps\nWidth : 640 pixels\nHeight : 352 pixels\nDisplay aspect ratio : 16:9\nFrame rate : 23.976 fps\nColor space : YUV\nChroma subsampling : 4:2:0\nBit depth : 8 bits\nScan type : Progressive\nBits/(Pixel*Frame) : 0.149\nStream size : 557 MiB (80%)\nWriting library : XviD 1.2.1 (UTC 2008-12-04)\n\nAudio\nID : 1\nFormat : AC-3\nFormat/Info : Audio Coding 3\nMode extension : CM (complete main)\nCodec ID : 2000\nDuration : 1h 36mn\nBit rate mode : Constant\nBit rate : 192 Kbps\nChannel(s) : 2 channels\nChannel positions : Front: L R\nSampling rate : 48.0 KHz\nBit depth : 16 bits\nStream size : 133 MiB (19%)\nAlignment : Split accross interleaves\nInterleave, duration : 42 ms (1.00 video frame)\nInterleave, preload duration : 500 ms","torrent":{"xt":"urn:btih:8d535215f2a44284fef4c422226e32f41379c80f","amp;dn":"The+Bill+Collector+2011+DVDRiP+XViD+TASTE","amp;tr":["udp%3A%2F%2Ftracker.openbittorrent.com%3A80","udp%3A%2F%2Fopen.demonii.com%3A1337","udp%3A%2F%2Ftracker.coppersurfer.tk%3A6969","udp%3A%2F%2Fexodus.desync.com%3A6969"],"infoHash":"8d535215f2a44284fef4c422226e32f41379c80f","infoHashBuffer":{"type":"Buffer","data":[141,83,82,21,242,164,66,132,254,244,196,34,34,110,50,244,19,121,200,15]},"announce":[],"urlList":[]}}